<svg viewBox="0 0 64 64" xmlns="http://www.w3.org/2000/svg"><path d="M32 3a29 29 0 1 0 29 29A29 29 0 0 0 32 3zm0 56a27 27 0 1 1 27-27 27 27 0 0 1-27 27zm14.5-25a11.81 11.81 0 0 1-11.8 11.8H32a1 1 0 0 1 0-2h2.7a9.82 9.82 0 0 0 9.8-9.8 1 1 0 0 1 2 0zM28 21H13a1 1 0 0 0 0 2h3.09a6 6 0 0 0 11.82 0H28a1 1 0 0 0 0-2zm-6 5a4 4 0 0 1-3.86-3h7.72A4 4 0 0 1 22 26zm29-5H35a1 1 0 0 0 0 2h4.09a6 6 0 0 0 11.82 0H51a1 1 0 0 0 0-2zm-6 5a4 4 0 0 1-3.86-3h7.72A4 4 0 0 1 45 26z" data-name="Layer 39" fill="#ffffff" class="fill-000000"></path></svg>